<svg version="1.1" 
	 id="Layer_1"
	 xmlns="http://www.w3.org/2000/svg" 
	 xmlns:xlink="http://www.w3.org/1999/xlink"
	 viewBox="0 0 1200 800" 
	 style="enable-background:new 0 0 1200 800;"
	 xml:space="preserve">
<style type="text/css">
	.st0{fill:none;stroke:#FFFFFF;stroke-width:45;stroke-miterlimit:10;}
	.st1{fill:none;stroke:#FFFFFF;stroke-width:45;stroke-miterlimit:10;}
</style>
<path class="st0"
	  d="M962.68,216.61c-8.71-32.78-34.35-58.6-66.93-67.36C836.72,133.33,600,133.33,600,133.33
	s-236.72,0-295.75,15.92c-32.57,8.76-58.23,34.58-66.93,67.36C221.5,276.03,221.5,400,221.5,400s0,123.96,15.82,183.39
	c8.7,32.78,34.35,58.59,66.93,67.36C363.28,666.67,600,666.67,600,666.67s236.72,0,295.75-15.92c32.57-8.77,58.22-34.58,66.93-67.36
	C978.49,523.97,978.49,400,978.49,400S978.49,276.03,962.68,216.61"/>
<path class="st1" 
	  d="M522.58,512.56l197.85-112.55L522.58,287.45V512.56z"/>
</svg>
