<svg version="1.1"
	 id="Layer_1" 
	 xmlns="http://www.w3.org/2000/svg" 
	 xmlns:xlink="http://www.w3.org/1999/xlink"
	 viewBox="0 0 635.71 514.64" 
	 style="enable-background:new 0 0 635.71 514.64;"
	 xml:space="preserve">
<style type="text/css">
	.st0{display:none;}
	.st1{display:inline;fill:none;stroke:#020202;stroke-width:30;stroke-miterlimit:10;}
	.st2{fill:none;stroke:#FFFFFF;stroke-width:30;stroke-miterlimit:10;}
</style>
<g>
	<g>
		<path d="M1049.57,366.5c3.22,0,3.22-5,0-5S1046.35,366.5,1049.57,366.5L1049.57,366.5z"/>
	</g>
</g>
<g class="st0">
	<path class="st1"
		  d="M595.98,111.19c-19.73,8.74-40.92,14.65-63.2,17.32c22.73-13.61,40.16-35.2,48.38-60.91
		c-21.26,12.62-44.82,21.78-69.88,26.7c-20.08-21.36-48.67-34.73-80.33-34.73c-60.76,0-110.05,49.28-110.05,110.09
		c0,8.6,0.99,16.96,2.83,25.04c-91.48-4.6-172.54-48.43-226.83-115c-9.45,16.3-14.88,35.2-14.88,55.33
		c0,38.18,19.44,71.89,48.95,91.62c-18.05-0.59-35.01-5.53-49.85-13.77v1.42c0,53.32,37.92,97.81,88.29,107.92
		c-9.26,2.5-18.97,3.83-28.99,3.83c-7.09,0-14.01-0.66-20.72-1.94c14.01,43.71,54.64,75.55,102.82,76.4
		c-37.68,29.53-85.14,47.13-136.69,47.13c-8.88,0-17.65-0.52-26.27-1.54c48.71,31.26,106.55,49.45,168.68,49.45
		c202.47,0,313.15-167.69,313.15-313.13c0-4.72-0.12-9.5-0.33-14.22c21.5-15.55,40.16-34.89,54.88-56.94L595.98,111.19z"/>
</g>
<path class="st2"
	  d="M410.65,23.83c7.84,67.4,45.46,107.59,110.86,111.86v75.81c-37.9,3.71-71.11-8.69-109.72-32.06v141.79
	c0,180.12-196.37,236.41-275.31,107.3c-50.73-83.08-19.66-228.85,143.07-234.7v79.94c-12.4,2-25.65,5.13-37.76,9.26
	c-36.2,12.26-56.72,35.2-51.01,75.67c10.97,77.52,153.19,100.46,141.36-51.02V23.97l78.5-0.33L410.65,23.83z"/>
</svg>
