<svg xmlns="http://www.w3.org/2000/svg" 
	 xmlns:xlink="http://www.w3.org/1999/xlink" 
	 version="1.1" 	 
	 viewBox="0 0 635.71 514.64"
	 style="enable-background:new 0 0 635.71 514.64;"
	 xml:space="preserve">
	<style type="text/css">
		.st0{
		fill:none;
		stroke:#FFFFFF;
		stroke-width:30;
		stroke-miterlimit:10;
		}
	</style>
<g>
	<g>
		<path d="M1049.57,366.5c3.22,0,3.22-5,0-5C1046.35,361.5,1046.35,366.5,1049.57,366.5L1049.57,366.5z"/>
	</g>
</g>
<g>
	<path class="st0"
		  d="M595.98,111.19c-19.73,8.74-40.92,14.65-63.2,17.32c22.73-13.61,40.16-35.2,48.38-60.91   c-21.26,12.62-44.82,21.78-69.88,26.7c-20.08-21.36-48.67-34.73-80.33-34.73c-60.76,0-110.05,49.28-110.05,110.09   c0,8.6,0.99,16.96,2.83,25.04C232.25,190.1,151.19,146.27,96.9,79.7c-9.45,16.3-14.88,35.2-14.88,55.33   c0,38.18,19.44,71.89,48.95,91.62c-18.05-0.59-35.01-5.53-49.85-13.77v1.42c0,53.32,37.92,97.81,88.29,107.92   c-9.26,2.5-18.97,3.83-28.99,3.83c-7.09,0-14.01-0.66-20.72-1.94c14.01,43.71,54.64,75.55,102.82,76.4   c-37.68,29.53-85.14,47.13-136.69,47.13c-8.88,0-17.65-0.52-26.27-1.54c48.71,31.26,106.55,49.45,168.68,49.45   c202.47,0,313.15-167.69,313.15-313.13c0-4.72-0.12-9.5-0.33-14.22c21.5-15.55,40.16-34.89,54.88-56.94L595.98,111.19z"/>
</g>
</svg>